<?xml version="1.0" encoding="UTF-8" standalone="no" ?>
<!DOCTYPE svg PUBLIC "-//W3C//DTD SVG 1.1//EN" "http://www.w3.org/Graphics/SVG/1.1/DTD/svg11.dtd">
<svg xmlns="http://www.w3.org/2000/svg" xmlns:xlink="http://www.w3.org/1999/xlink" version="1.1" width="1080" height="1080" viewBox="0 0 1080 1080" xml:space="preserve">
<desc>Created with Fabric.js 5.2.4</desc>
<defs>
</defs>
<g transform="matrix(1 0 0 1 540 540)" id="e5e85e7a-1721-4f8c-b09e-f2eabafdcae6"  >
</g>
<g transform="matrix(1 0 0 1 540 540)" id="86093926-fb2b-46a2-85b4-415a9b20809e"  >
<rect style="stroke: none; stroke-width: 1; stroke-dasharray: none; stroke-linecap: butt; stroke-dashoffset: 0; stroke-linejoin: miter; stroke-miterlimit: 4; fill: rgb(255,255,255); fill-rule: nonzero; opacity: 1; visibility: hidden;" vector-effect="non-scaling-stroke"  x="-540" y="-540" rx="0" ry="0" width="1080" height="1080" />
</g>
<g transform="matrix(2.09 0 0 2.09 540 540)"  >
<g style="" vector-effect="non-scaling-stroke"   >
		<g transform="matrix(1 0 0 1 0 0)"  >
<path style="stroke: none; stroke-width: 1; stroke-dasharray: none; stroke-linecap: butt; stroke-dashoffset: 0; stroke-linejoin: miter; stroke-miterlimit: 4; fill: rgb(158,120,207); fill-rule: nonzero; opacity: 1;" vector-effect="non-scaling-stroke"  transform=" translate(-256, -256)" d="M 331.636 69.818 L 331.636 0 L 180.364 0 L 180.364 69.818 L 52.364000000000004 69.818 L 52.364000000000004 197.81799999999998 L 87.273 197.81799999999998 L 87.273 512 L 424.72799999999995 512 L 424.72799999999995 197.818 L 459.63699999999994 197.818 L 459.63699999999994 69.81800000000001 L 331.636 69.81800000000001 z M 215.273 34.909 L 296.728 34.909 L 296.728 69.818 L 215.27300000000002 69.818 L 215.27300000000002 34.909 z M 389.818 477.091 L 122.182 477.091 L 122.182 197.818 L 389.81800000000004 197.818 L 389.81800000000004 477.091 z M 424.727 162.909 L 87.273 162.909 L 87.273 104.72699999999999 L 424.72799999999995 104.72699999999999 L 424.72799999999995 162.909 z" stroke-linecap="round" />
</g>
		<g transform="matrix(1 0 0 1 -69.81 81.45)"  >
<rect style="stroke: none; stroke-width: 1; stroke-dasharray: none; stroke-linecap: butt; stroke-dashoffset: 0; stroke-linejoin: miter; stroke-miterlimit: 4; fill: rgb(158,120,207); fill-rule: nonzero; opacity: 1;" vector-effect="non-scaling-stroke"  x="-17.455" y="-81.455" rx="0" ry="0" width="34.91" height="162.91" />
</g>
		<g transform="matrix(1 0 0 1 69.81 81.45)"  >
<rect style="stroke: none; stroke-width: 1; stroke-dasharray: none; stroke-linecap: butt; stroke-dashoffset: 0; stroke-linejoin: miter; stroke-miterlimit: 4; fill: rgb(158,120,207); fill-rule: nonzero; opacity: 1;" vector-effect="non-scaling-stroke"  x="-17.455" y="-81.455" rx="0" ry="0" width="34.91" height="162.91" />
</g>
		<g transform="matrix(1 0 0 1 -0.01 81.45)"  >
<rect style="stroke: none; stroke-width: 1; stroke-dasharray: none; stroke-linecap: butt; stroke-dashoffset: 0; stroke-linejoin: miter; stroke-miterlimit: 4; fill: rgb(158,120,207); fill-rule: nonzero; opacity: 1;" vector-effect="non-scaling-stroke"  x="-17.455" y="-81.455" rx="0" ry="0" width="34.91" height="162.91" />
</g>
</g>
</g>
<g transform="matrix(NaN NaN NaN NaN 0 0)"  >
<g style=""   >
</g>
</g>
<g transform="matrix(NaN NaN NaN NaN 0 0)"  >
<g style=""   >
</g>
</g>
</svg>